<?xml version="1.0" encoding="UTF-8" standalone="no"?>
<svg
   xmlns:dc="http://purl.org/dc/elements/1.1/"
   xmlns:cc="http://creativecommons.org/ns#"
   xmlns:rdf="http://www.w3.org/1999/02/22-rdf-syntax-ns#"
   xmlns:svg="http://www.w3.org/2000/svg"
   xmlns="http://www.w3.org/2000/svg"
   xmlns:sodipodi="http://sodipodi.sourceforge.net/DTD/sodipodi-0.dtd"
   xmlns:inkscape="http://www.inkscape.org/namespaces/inkscape"
   width="100%"
   height="100%"
   viewBox="0 0 300 300"
   version="1.1"
   xml:space="preserve"
   style="fill-rule:evenodd;clip-rule:evenodd;stroke-linecap:round;stroke-linejoin:round;stroke-miterlimit:1.5;"
   id="svg845"
   sodipodi:docname="map.svg"
   inkscape:version="1.0.1 (3bc2e813f5, 2020-09-07)"><metadata
   id="metadata851"><rdf:RDF><cc:Work
       rdf:about=""><dc:format>image/svg+xml</dc:format><dc:type
         rdf:resource="http://purl.org/dc/dcmitype/StillImage" /></cc:Work></rdf:RDF></metadata><defs
   id="defs849" /><sodipodi:namedview
   pagecolor="#ffffff"
   bordercolor="#666666"
   borderopacity="1"
   objecttolerance="10"
   gridtolerance="10"
   guidetolerance="10"
   inkscape:pageopacity="0"
   inkscape:pageshadow="2"
   inkscape:window-width="1636"
   inkscape:window-height="891"
   id="namedview847"
   showgrid="false"
   inkscape:zoom="57.473639"
   inkscape:cx="14.293774"
   inkscape:cy="12.735326"
   inkscape:window-x="1680"
   inkscape:window-y="361"
   inkscape:window-maximized="0"
   inkscape:current-layer="svg845" />
   <rect
   id="rect843"
   x="22"
   y="16.656"
   width="24"
   height="11"
   style="fill:#89644b;" />
   <rect
   id="water1"
   x="21"
   y="17"
   width="26"
   height="11"
   style="fill:#008fff;fill-opacity:0.49;" />
   <path
   id="terrain"
   d="M5,16l18,0l1.382,5.301l3.873,1.998l6.42,0.679l6.236,-0.849l2.568,-3.564l0.734,-3.056l6.053,0l-0.266,21.491l-12.68,2l-32.32,-2l0,-22Z"
   style="fill:#ff7f2a;stroke:#000;stroke-width:0.1px;" />
   <rect
   id="player"
   x="16"
   y="14"
   width="1"
   height="2"
   style="fill:none;stroke:#f00;stroke-width:0.38px;" />
   <path
   id="path845"
   d="M10.335,16l1.082,-0.35l0.583,-0.296l0.352,-0.664l-0.024,-3.322l1.181,0l-0.025,1.993l0.074,1.304l0.442,0.862l1,0.473l-4.665,-0Z"
   style="fill:#a05a2c;stroke:#000;stroke-width:0.1px;stroke-linecap:butt;stroke-linejoin:miter;" />
   <path
   id="path847"
   d="M10.297,11.289l0.066,0.927l0.619,0.464l0.93,-0.133l0.641,0.464l1.173,0.155l0.508,-0.177l0.354,-0.729l0.952,-0.11l0.42,-0.574l0.354,-1.127l-0.42,-0.508l-0.222,-1.082l-1.106,-0.662l-0.641,-0.84l-1.549,0l-0.575,0.486l-0.465,0.839l-1.084,0.464l-0.531,0.95l0.022,0.596l0.554,0.597Z"
   style="fill:#008000;stroke:#000;stroke-width:0.1px;stroke-linecap:butt;stroke-linejoin:miter;" />
   <path
   id="path849"
   d="M10.811,10.712l-0.109,0.184l0.086,0.156l0.129,-0.012l0.125,0.067l0.18,-0.086l0.027,-0.239l-0.113,-0.101l-0.133,0.039l-0.117,-0.078l-0.075,0.07Z"
   style="fill:#f0f;stroke:#000;stroke-width:0.05px;stroke-linecap:butt;stroke-linejoin:miter;" />
   <path
   id="path849-6"
   d="M13.394,10.899l-0.11,0.184l0.086,0.156l0.129,-0.011l0.125,0.066l0.18,-0.086l0.027,-0.238l-0.113,-0.102l-0.133,0.039l-0.117,-0.078l-0.074,0.07Z"
   style="fill:#f0f;stroke:#000;stroke-width:0.05px;stroke-linecap:butt;stroke-linejoin:miter;" />
   <path
   id="path849-4"
   d="m 11.792,11.618 -0.11,0.183 0.086,0.156 0.129,-0.011 0.125,0.066 0.18,-0.086 0.027,-0.238 -0.113,-0.102 -0.133,0.039 -0.117,-0.078 z"
   style="fill:#ff00ff;stroke:#000000;stroke-width:0.05px;stroke-linecap:butt;stroke-linejoin:miter" />
   <path
   id="path849-8"
   d="M13.46,12.214l-0.109,0.184l0.086,0.156l0.129,-0.012l0.125,0.067l0.179,-0.086l0.028,-0.238l-0.114,-0.102l-0.133,0.039l-0.117,-0.078l-0.074,0.07Z"
   style="fill:#f0f;stroke:#000;stroke-width:0.05px;stroke-linecap:butt;stroke-linejoin:miter;" />
   <path
   id="path849-66"
   d="M15.117,11.154l-0.109,0.183l0.086,0.156l0.129,-0.011l0.125,0.066l0.179,-0.086l0.028,-0.238l-0.113,-0.102l-0.133,0.039l-0.117,-0.078l-0.075,0.071Z"
   style="fill:#f0f;stroke:#000;stroke-width:0.05px;stroke-linecap:butt;stroke-linejoin:miter;" />
   <path
   id="path849-1"
   d="M10.753,11.739l-0.109,0.184l0.086,0.156l0.129,-0.012l0.125,0.067l0.179,-0.086l0.028,-0.239l-0.114,-0.101l-0.132,0.039l-0.118,-0.078l-0.074,0.07Z"
   style="fill:#f0f;stroke:#000;stroke-width:0.05px;stroke-linecap:butt;stroke-linejoin:miter;" />
</svg>
