<?xml version="1.0" encoding="UTF-8" standalone="no"?>
<svg
   xmlns:dc="http://purl.org/dc/elements/1.1/"
   xmlns:cc="http://creativecommons.org/ns#"
   xmlns:rdf="http://www.w3.org/1999/02/22-rdf-syntax-ns#"
   xmlns:svg="http://www.w3.org/2000/svg"
   xmlns="http://www.w3.org/2000/svg"
   xmlns:sodipodi="http://sodipodi.sourceforge.net/DTD/sodipodi-0.dtd"
   xmlns:inkscape="http://www.inkscape.org/namespaces/inkscape"
   width="100%"
   height="100%"
   viewBox="0 0 300 300"
   version="1.1"
   xml:space="preserve"
   style="fill-rule:evenodd;clip-rule:evenodd;stroke-linecap:round;stroke-linejoin:round;stroke-miterlimit:1.5;"
   id="svg845"
   sodipodi:docname="map.svg"
   inkscape:version="1.0.1 (3bc2e813f5, 2020-09-07)"><metadata
   id="metadata851"><rdf:RDF><cc:Work
       rdf:about=""><dc:format>image/svg+xml</dc:format><dc:type
         rdf:resource="http://purl.org/dc/dcmitype/StillImage" /></cc:Work></rdf:RDF></metadata><defs
   id="defs849" /><sodipodi:namedview
   pagecolor="#ffffff"
   bordercolor="#666666"
   borderopacity="1"
   objecttolerance="10"
   gridtolerance="10"
   guidetolerance="10"
   inkscape:pageopacity="0"
   inkscape:pageshadow="2"
   inkscape:window-width="1346"
   inkscape:window-height="1180"
   id="namedview847"
   showgrid="false"
   inkscape:zoom="22.627417"
   inkscape:cx="15.938472"
   inkscape:cy="16.898548"
   inkscape:window-x="961"
   inkscape:window-y="134"
   inkscape:window-maximized="0"
   inkscape:current-layer="svg845"
   inkscape:document-rotation="0" />
   <rect
   id="rect843"
   x="22"
   y="16.656"
   width="24"
   height="11"
   style="fill:#89644b;stroke-width:0.1;stroke-miterlimit:1.5;stroke-dasharray:none" />
   <path
   style="fill:#917c6f;stroke:#000000;stroke-width:0.1;stroke-linecap:butt;stroke-linejoin:miter;stroke-miterlimit:1.5;stroke-dasharray:none;stroke-opacity:1"
   d="m 23.598504,21.460302 1.308325,-0.708676 2.861959,0.299825 c 0,0 2.943732,-0.190797 3.052759,-0.163541 0.109021,0.02726 2.398594,-0.02726 2.398594,-0.02726 0,0 0.92673,0.763189 1.144785,0.817703 0.218054,0.05451 2.86196,-0.626905 2.86196,-0.626905 l 2.180541,-0.02726 0.626906,0.84496 1.608149,-0.735932 1.390095,0.354337 -0.490621,1.526379 -6.786935,1.117527 -9.881754,-1.014334 z"
   id="path855"
   sodipodi:nodetypes="cccscsccccccccc" /><rect
   id="water1"
   x="21"
   y="17"
   width="26"
   height="11"
   style="fill:#008fff;fill-opacity:0.49;stroke-width:0.1;stroke-miterlimit:1.5;stroke-dasharray:none" />
   <path
   id="terrain"
   d="m 5,16 h 18 l 1.382,5.301 3.873,1.998 6.42,0.679 6.236,-0.849 2.568,-3.564 0.734,-3.056 h 6.053 L 50,38 37.32,40 5,38 Z"
   style="fill:#ff7f2a;stroke:#000000;stroke-width:0.1;stroke-miterlimit:1.5;stroke-dasharray:none"
   sodipodi:nodetypes="ccccccccccccc" />
   <rect
   id="player"
   x="16"
   y="14"
   width="1"
   height="2"
   style="fill:#917c6f;stroke:#f00;stroke-width:0.1;stroke-miterlimit:1.5;stroke-dasharray:none;fill-opacity:0" />
   <path
   id="path845"
   d="M 10.335,16 11.417,15.65 12,15.354 12.352,14.69 12.328,11.368 h 1.181 l -0.025,1.993 0.074,1.304 L 14,15.527 15,16 Z"
   style="fill:#a05a2c;stroke:#000000;stroke-width:0.1;stroke-linecap:butt;stroke-linejoin:miter;stroke-miterlimit:1.5;stroke-dasharray:none"
   sodipodi:nodetypes="ccccccccccc" />
   <path
   id="path847"
   d="m 10.297,11.289 0.066,0.927 0.619,0.464 0.93,-0.133 0.641,0.464 1.173,0.155 0.508,-0.177 0.354,-0.729 0.952,-0.11 0.42,-0.574 0.354,-1.127 -0.42,-0.508 -0.222,-1.082 -1.106,-0.662 -0.641,-0.84 h -1.549 l -0.575,0.486 -0.465,0.839 -1.084,0.464 -0.531,0.95 0.022,0.596 z"
   style="fill:#008000;stroke:#000000;stroke-width:0.1;stroke-linecap:butt;stroke-linejoin:miter;stroke-miterlimit:1.5;stroke-dasharray:none"
   sodipodi:nodetypes="cccccccccccccccccccccc" />
   <path
   id="path849"
   d="m 10.811,10.712 -0.109,0.184 0.086,0.156 0.129,-0.012 0.125,0.067 0.18,-0.086 0.027,-0.239 -0.113,-0.101 -0.133,0.039 -0.117,-0.078 z"
   style="fill:#ff00ff;stroke:#000000;stroke-width:0.1;stroke-linecap:butt;stroke-linejoin:miter;stroke-miterlimit:1.5;stroke-dasharray:none"
   sodipodi:nodetypes="ccccccccccc" />
   <path
   id="path849-6"
   d="m 13.394,10.899 -0.11,0.184 0.086,0.156 0.129,-0.011 0.125,0.066 0.18,-0.086 0.027,-0.238 -0.113,-0.102 -0.133,0.039 -0.117,-0.078 z"
   style="fill:#ff00ff;stroke:#000000;stroke-width:0.1;stroke-linecap:butt;stroke-linejoin:miter;stroke-miterlimit:1.5;stroke-dasharray:none"
   sodipodi:nodetypes="ccccccccccc" />
   <path
   id="path849-4"
   d="m 11.792,11.618 -0.11,0.183 0.086,0.156 0.129,-0.011 0.125,0.066 0.18,-0.086 0.027,-0.238 -0.113,-0.102 -0.133,0.039 -0.117,-0.078 z"
   style="fill:#ff00ff;stroke:#000000;stroke-width:0.1;stroke-linecap:butt;stroke-linejoin:miter;stroke-miterlimit:1.5;stroke-dasharray:none"
   sodipodi:nodetypes="ccccccccccc" />
   <path
   id="path849-8"
   d="m 13.46,12.214 -0.109,0.184 0.086,0.156 0.129,-0.012 0.125,0.067 0.179,-0.086 0.028,-0.238 -0.114,-0.102 -0.133,0.039 -0.117,-0.078 z"
   style="fill:#ff00ff;stroke:#000000;stroke-width:0.1;stroke-linecap:butt;stroke-linejoin:miter;stroke-miterlimit:1.5;stroke-dasharray:none"
   sodipodi:nodetypes="ccccccccccc" />
   <path
   id="path849-66"
   d="m 15.117,11.154 -0.109,0.183 0.086,0.156 0.129,-0.011 0.125,0.066 0.179,-0.086 0.028,-0.238 -0.113,-0.102 -0.133,0.039 -0.117,-0.078 z"
   style="fill:#ff00ff;stroke:#000000;stroke-width:0.1;stroke-linecap:butt;stroke-linejoin:miter;stroke-miterlimit:1.5;stroke-dasharray:none"
   sodipodi:nodetypes="ccccccccccc" />
   <path
   id="path849-1"
   d="m 10.753,11.739 -0.109,0.184 0.086,0.156 0.129,-0.012 0.125,0.067 0.179,-0.086 0.028,-0.239 -0.114,-0.101 -0.132,0.039 -0.118,-0.078 z"
   style="fill:#ff00ff;stroke:#000000;stroke-width:0.1;stroke-linecap:butt;stroke-linejoin:miter;stroke-miterlimit:1.5;stroke-dasharray:none"
   sodipodi:nodetypes="ccccccccccc" />
<path
   style="fill:#6f6963;fill-opacity:1;stroke:#000000;stroke-width:0.1;stroke-linecap:butt;stroke-linejoin:miter;stroke-miterlimit:1.5;stroke-dasharray:none;stroke-opacity:1"
   d="m 24.860588,21.473698 0.907747,0.06661 0.48718,0.608975 1.096155,0.104395 1.183151,0.608975 0.97436,-0.121795 1.496338,0.452382 1.826924,0.121795 0.817767,-0.295788 2.592492,0.313187 0.574177,-0.521979 3.304946,0.0174 0.993188,-0.521979 0.660661,-0.869964 c 0,0 0.430391,-0.518573 0.734991,-0.552342 0.746328,0.307114 0.528561,0.527831 0.733753,1.243579 l -0.215998,0.631108 -0.608975,1.043957 -1.426741,0.173992 -0.365385,-0.260989 -1.774726,0.469781 -1.357144,0.521978 -1.94872,-0.087 -1.409342,0.400183 -1.879122,-0.260989 -3.445058,-0.695971 -1.548536,0.295788 -1.722528,-0.904763 -1.687731,-0.852565 -0.452381,-0.97436 0.0174,-0.852564 h 1.009159 z"
   id="rocks"
   sodipodi:nodetypes="ccccccccccccccccccccccccccccccccc" /><rect
   style="opacity:0.998;fill:#917c6f;fill-opacity:0;stroke:#00ff00;stroke-width:0.1;stroke-miterlimit:1.5;stroke-dasharray:0.1, 0.4;stroke-dashoffset:0;stroke-opacity:1;paint-order:markers stroke fill"
   id="hitbox-1"
   width="18.025164"
   height="9.8535919"
   x="5"
   y="16" /></svg>
